<svg width="20" height="15" viewBox="0 0 20 15" fill="none" xmlns="http://www.w3.org/2000/svg">
<path d="M9.95872 0C4.79801 0 0.616699 3.35685 0.616699 7.5C0.616699 11.6431 4.79801 15 9.95872 15C15.1194 15 19.3007 11.6431 19.3007 7.5C19.3007 3.35685 15.1194 0 9.95872 0ZM12.1096 10.5877L8.7872 8.64919C8.67043 8.57964 8.60262 8.47077 8.60262 8.35585V3.26613C8.60262 3.06653 8.80604 2.90323 9.05466 2.90323H10.8628C11.1114 2.90323 11.3148 3.06653 11.3148 3.26613V7.43044L13.7068 8.82762C13.9102 8.94556 13.9517 9.17238 13.8048 9.33569L12.7425 10.5091C12.5956 10.6694 12.3131 10.7056 12.1096 10.5877Z" fill="#0F2338"/>
</svg>
