<svg width="18" height="15" viewBox="0 0 18 15" fill="none" xmlns="http://www.w3.org/2000/svg">
<path d="M6.0767 6.32818H11.3014C11.5901 6.32818 11.8239 6.11841 11.8239 5.85943V5.39068C11.8239 5.1317 11.5901 4.92194 11.3014 4.92194H6.0767C5.78803 4.92194 5.55422 5.1317 5.55422 5.39068V5.85943C5.55422 6.11841 5.78803 6.32818 6.0767 6.32818ZM5.55422 8.67191C5.55422 8.93089 5.78803 9.14066 6.0767 9.14066H11.3014C11.5901 9.14066 11.8239 8.93089 11.8239 8.67191V8.20317C11.8239 7.94418 11.5901 7.73442 11.3014 7.73442H6.0767C5.78803 7.73442 5.55422 7.94418 5.55422 8.20317V8.67191ZM8.68907 12.2206C8.15288 12.2206 7.61669 12.0724 7.15887 11.7756L0.329468 7.34946V13.5938C0.329468 14.3704 1.03122 15 1.89689 15H15.4812C16.3469 15 17.0487 14.3704 17.0487 13.5938V7.34946L10.2193 11.7756C9.76145 12.0721 9.22526 12.2206 8.68907 12.2206ZM16.4482 4.77399C16.1592 4.57067 15.8852 4.37936 15.4812 4.10573V2.81257C15.4812 2.03592 14.7795 1.40633 13.9138 1.40633H11.3815C11.2822 1.34188 11.1898 1.28153 11.0863 1.21415C10.5373 0.854675 9.44666 -0.0101635 8.68907 9.03912e-05C7.93148 -0.0101635 6.84114 0.854675 6.29189 1.21415C6.18837 1.28153 6.09596 1.34188 5.99669 1.40633H3.46432C2.59864 1.40633 1.89689 2.03592 1.89689 2.81257V4.10573C1.49295 4.37907 1.21898 4.57067 0.929988 4.77399C0.742928 4.90551 0.591657 5.07347 0.487619 5.26518C0.383581 5.45688 0.3295 5.6673 0.329468 5.88052L0.329468 6.19253L3.46432 8.22426V2.81257H13.9138V8.22426L17.0487 6.19253V5.88052C17.0487 5.44869 16.8273 5.04059 16.4482 4.77399Z" fill="#0F2338"/>
</svg>
