<svg width="13" height="15" viewBox="0 0 13 15" fill="none" xmlns="http://www.w3.org/2000/svg">
<path d="M3.43261 14.8525C-0.749197 11.0476 -0.742983 4.8842 3.43261 1.08495C3.61608 0.918014 3.90036 0.890651 4.11725 1.01399L6.20429 2.20089C6.31434 2.26347 6.39672 2.35925 6.43703 2.47148C6.47734 2.58371 6.47302 2.70527 6.42482 2.8149L5.38132 5.18856C5.33674 5.28996 5.25714 5.37542 5.15452 5.43206C5.05191 5.48871 4.93183 5.51346 4.8124 5.50259L3.01537 5.33912C2.33755 7.04598 2.35169 8.92713 3.01537 10.5983L4.81243 10.4348C4.93186 10.424 5.05194 10.4487 5.15456 10.5054C5.25718 10.562 5.33677 10.6475 5.38135 10.7489L6.42486 13.1226C6.47305 13.2322 6.47736 13.3537 6.43705 13.466C6.39674 13.5782 6.31437 13.674 6.20433 13.7366L4.11729 14.9235C4.01115 14.9838 3.88568 15.0097 3.76133 14.9968C3.63698 14.9839 3.52111 14.933 3.43261 14.8525ZM8.25579 2.79706C8.63676 3.38437 8.63676 4.11565 8.25579 4.70296C8.1286 4.89905 7.83372 4.93614 7.65309 4.77858L7.4607 4.61083C7.33477 4.50102 7.30637 4.32893 7.38789 4.18866C7.46636 4.05347 7.50737 3.90289 7.50737 3.75001C7.50737 3.59713 7.46636 3.44655 7.38789 3.31136C7.30633 3.17109 7.33477 2.999 7.4607 2.8892L7.65309 2.72144C7.83372 2.56388 8.1286 2.60097 8.25579 2.79706ZM11.2112 0.125563C13.1477 2.22334 13.1461 5.27836 11.2112 7.37443C11.0672 7.53049 10.8078 7.54277 10.6461 7.40176L10.4594 7.23896C10.3126 7.1109 10.2991 6.9012 10.4294 6.75911C12.0293 5.01483 12.028 2.48373 10.4294 0.740885C10.2991 0.598795 10.3125 0.389088 10.4594 0.261032L10.6461 0.0982291C10.8078 -0.0427767 11.0672 -0.0305013 11.2112 0.125563ZM9.73098 1.44219C10.8918 2.79928 10.8936 4.69851 9.73098 6.0578C9.58963 6.22306 9.32215 6.24093 9.15604 6.096L8.9687 5.93255C8.82703 5.80895 8.80777 5.60751 8.92733 5.46583C9.78176 4.45321 9.78169 3.04672 8.92733 2.03417C8.80777 1.89249 8.82703 1.69107 8.9687 1.56744L9.15604 1.40399C9.32215 1.25906 9.58963 1.27693 9.73098 1.44219Z" fill="#0F2338"/>
</svg>
